<svg version="1.1" xmlns="http://www.w3.org/2000/svg" xmlns:xlink="http://www.w3.org/1999/xlink" width="1540" height="902"><defs><clipPath id="fXdZdQJdEuok"><path fill="none" stroke="none" d=" M 0 0 L 1540 0 L 1540 902 L 0 902 L 0 0 Z"/></clipPath></defs><g transform="scale(1,1)" clip-path="url(#fXdZdQJdEuok)"><g><rect fill="rgb(255,255,255)" stroke="none" x="0" y="0" width="1540" height="902" fill-opacity="1"/><path fill="rgb(0,0,0)" stroke="none" paint-order="stroke fill markers" fill-rule="evenodd" d=" M 863.0716365197964 536.3093668464278 L 841.8584330842014 536.3093668464278 L 841.8584330841999 557.5225702820242 L 863.0716365197964 557.5225702820228 L 863.0716365197964 536.3093668464278" fill-opacity="0.09803921568627451"/><path fill="none" stroke="rgb(0,0,0)" paint-order="fill stroke markers" d=" M 863.0716365197964 536.3093668464278 L 841.8584330842014 536.3093668464278 L 841.8584330841999 557.5225702820242 L 863.0716365197964 557.5225702820228 L 863.0716365197964 536.3093668464278" stroke-opacity="0.6" stroke-linecap="round" stroke-linejoin="round" stroke-miterlimit="10" stroke-width="2"/><text fill="rgb(0,0,0)" stroke="none" font-family="geogebra-sans-serif, sans-serif" font-size="16px" font-style="normal" font-weight="normal" text-decoration="normal" x="847" y="553" text-anchor="start" dominant-baseline="alphabetic" fill-opacity="1">90°</text><text fill="none" stroke="rgb(255,255,255)" font-family="geogebra-sans-serif, sans-serif" font-size="16px" font-style="normal" font-weight="normal" text-decoration="normal" x="847" y="553" text-anchor="start" dominant-baseline="alphabetic" stroke-opacity="1" stroke-linejoin="bevel" stroke-miterlimit="10" stroke-width="3">90°</text><text fill="rgb(0,0,0)" stroke="none" font-family="geogebra-sans-serif, sans-serif" font-size="16px" font-style="normal" font-weight="normal" text-decoration="normal" x="847" y="553" text-anchor="start" dominant-baseline="alphabetic" fill-opacity="1">90°</text><path fill="rgb(0,0,0)" stroke="none" paint-order="stroke fill markers" d=" M 572.973186235436 148.1978860514697 C 586.2424427885815 138.27962556969146 588.9606166548723 119.48321354186464 579.0448017318297 106.21212937855819 L 555.0122465146255 124.16864044646968 Z" fill-opacity="0.09803921568627451"/><path fill="none" stroke="rgb(0,0,0)" paint-order="fill stroke markers" d=" M 572.973186235436 148.1978860514697 C 586.2424427885815 138.27962556969146 588.9606166548723 119.48321354186464 579.0448017318297 106.21212937855819 L 555.0122465146255 124.16864044646968 Z" stroke-opacity="0.6" stroke-linecap="round" stroke-linejoin="round" stroke-miterlimit="10" stroke-width="2"/><text fill="rgb(0,0,0)" stroke="none" font-family="geogebra-sans-serif, sans-serif" font-size="16px" font-style="normal" font-weight="normal" text-decoration="normal" x="569" y="131" text-anchor="start" dominant-baseline="alphabetic" fill-opacity="1">90°</text><text fill="none" stroke="rgb(255,255,255)" font-family="geogebra-sans-serif, sans-serif" font-size="16px" font-style="normal" font-weight="normal" text-decoration="normal" x="569" y="131" text-anchor="start" dominant-baseline="alphabetic" stroke-opacity="1" stroke-linejoin="bevel" stroke-miterlimit="10" stroke-width="3">90°</text><text fill="rgb(0,0,0)" stroke="none" font-family="geogebra-sans-serif, sans-serif" font-size="16px" font-style="normal" font-weight="normal" text-decoration="normal" x="569" y="131" text-anchor="start" dominant-baseline="alphabetic" fill-opacity="1">90°</text><path fill="none" stroke="rgb(97,97,97)" paint-order="fill stroke markers" d=" M 584.718990208385 536.3093668464278 L 863.0716365197964 536.3093668464278" stroke-opacity="0.8" stroke-linecap="round" stroke-linejoin="round" stroke-miterlimit="10" stroke-width="2.5"/><text fill="rgb(97,97,97)" stroke="none" font-family="geogebra-sans-serif, sans-serif" font-size="16px" font-style="normal" font-weight="normal" text-decoration="normal" x="712" y="550" text-anchor="start" dominant-baseline="alphabetic" fill-opacity="1">a</text><text fill="none" stroke="rgb(255,255,255)" font-family="geogebra-sans-serif, sans-serif" font-size="16px" font-style="normal" font-weight="normal" text-decoration="normal" x="712" y="550" text-anchor="start" dominant-baseline="alphabetic" stroke-opacity="1" stroke-linejoin="bevel" stroke-miterlimit="10" stroke-width="3">a</text><text fill="rgb(97,97,97)" stroke="none" font-family="geogebra-sans-serif, sans-serif" font-size="16px" font-style="normal" font-weight="normal" text-decoration="normal" x="712" y="550" text-anchor="start" dominant-baseline="alphabetic" fill-opacity="1">a</text><path fill="none" stroke="rgb(97,97,97)" paint-order="fill stroke markers" d=" M 863.0716365197964 536.3093668464278 L 864.1206910370568 327.54751791159987" stroke-opacity="0.8" stroke-linecap="round" stroke-linejoin="round" stroke-miterlimit="10" stroke-width="2.5"/><text fill="rgb(97,97,97)" stroke="none" font-family="geogebra-sans-serif, sans-serif" font-size="16px" font-style="normal" font-weight="normal" text-decoration="normal" x="879" y="432" text-anchor="start" dominant-baseline="alphabetic" fill-opacity="1">o</text><text fill="none" stroke="rgb(255,255,255)" font-family="geogebra-sans-serif, sans-serif" font-size="16px" font-style="normal" font-weight="normal" text-decoration="normal" x="879" y="432" text-anchor="start" dominant-baseline="alphabetic" stroke-opacity="1" stroke-linejoin="bevel" stroke-miterlimit="10" stroke-width="3">o</text><text fill="rgb(97,97,97)" stroke="none" font-family="geogebra-sans-serif, sans-serif" font-size="16px" font-style="normal" font-weight="normal" text-decoration="normal" x="879" y="432" text-anchor="start" dominant-baseline="alphabetic" fill-opacity="1">o</text><path fill="none" stroke="rgb(97,97,97)" paint-order="fill stroke markers" d=" M 864.1206910370568 327.54751791159987 L 584.718990208385 536.3093668464278" stroke-opacity="0.8" stroke-linecap="round" stroke-linejoin="round" stroke-miterlimit="10" stroke-width="2.5"/><text fill="rgb(97,97,97)" stroke="none" font-family="geogebra-sans-serif, sans-serif" font-size="16px" font-style="normal" font-weight="normal" text-decoration="normal" x="714" y="419" text-anchor="start" dominant-baseline="alphabetic" fill-opacity="1">h</text><text fill="none" stroke="rgb(255,255,255)" font-family="geogebra-sans-serif, sans-serif" font-size="16px" font-style="normal" font-weight="normal" text-decoration="normal" x="714" y="419" text-anchor="start" dominant-baseline="alphabetic" stroke-opacity="1" stroke-linejoin="bevel" stroke-miterlimit="10" stroke-width="3">h</text><text fill="rgb(97,97,97)" stroke="none" font-family="geogebra-sans-serif, sans-serif" font-size="16px" font-style="normal" font-weight="normal" text-decoration="normal" x="714" y="419" text-anchor="start" dominant-baseline="alphabetic" fill-opacity="1">h</text><path fill="none" stroke="rgb(97,97,97)" paint-order="fill stroke markers" d=" M 863.0716365197964 536.3093668464278 L 863.0716365197964 814.6620131578389" stroke-opacity="0.8" stroke-linecap="round" stroke-linejoin="round" stroke-miterlimit="10" stroke-width="2.5"/><path fill="none" stroke="rgb(97,97,97)" paint-order="fill stroke markers" d=" M 864.1206910370568 327.54751791159987 L 1072.8851757706152 327.54751791159987" stroke-opacity="0.8" stroke-linecap="round" stroke-linejoin="round" stroke-miterlimit="10" stroke-width="2.5"/><path fill="none" stroke="rgb(97,97,97)" paint-order="fill stroke markers" d=" M 863.0716365197964 536.3093668464278 L 1071.8361212533548 536.3093668464278" stroke-opacity="0.8" stroke-linecap="round" stroke-linejoin="round" stroke-miterlimit="10" stroke-width="2.5"/><path fill="none" stroke="rgb(97,97,97)" paint-order="fill stroke markers" d=" M 1072.8851757706152 327.54751791159987 L 1071.8361212533548 536.3093668464278" stroke-opacity="0.8" stroke-linecap="round" stroke-linejoin="round" stroke-miterlimit="10" stroke-width="2.5"/><path fill="none" stroke="rgb(97,97,97)" paint-order="fill stroke markers" d=" M 584.718990208385 536.3093668464278 L 584.5757222739468 814.661976287878" stroke-opacity="0.8" stroke-linecap="round" stroke-linejoin="round" stroke-miterlimit="10" stroke-width="2.5"/><path fill="none" stroke="rgb(97,97,97)" paint-order="fill stroke markers" d=" M 584.5757222739468 814.661976287878 L 863.0716365197964 814.6620131578389" stroke-opacity="0.8" stroke-linecap="round" stroke-linejoin="round" stroke-miterlimit="10" stroke-width="2.5"/><path fill="none" stroke="rgb(97,97,97)" paint-order="fill stroke markers" d=" M 864.1206910370568 327.54751791159987 L 655.9781899714964 48.729467841653786" stroke-opacity="0.8" stroke-linecap="round" stroke-linejoin="round" stroke-miterlimit="10" stroke-width="2.5"/><path fill="none" stroke="rgb(97,97,97)" paint-order="fill stroke markers" d=" M 584.718990208385 536.3093668464278 L 376.4609461924897 257.577608883136" stroke-opacity="0.8" stroke-linecap="round" stroke-linejoin="round" stroke-miterlimit="10" stroke-width="2.5"/><path fill="none" stroke="rgb(97,97,97)" paint-order="fill stroke markers" d=" M 376.4609461924897 257.577608883136 L 655.9781899714964 48.729467841653786" stroke-opacity="0.8" stroke-linecap="round" stroke-linejoin="round" stroke-miterlimit="10" stroke-width="2.5"/><path fill="none" stroke="rgb(97,97,97)" paint-order="fill stroke markers" d=" M 863.0716365197964 536.3093668464278 L 555.0122465146255 124.16864044646968" stroke-opacity="0.8" stroke-linecap="round" stroke-linejoin="round" stroke-miterlimit="10" stroke-width="2.5"/><path fill="none" stroke="rgb(211,47,47)" paint-order="fill stroke markers" d=" M 655.9781899714964 48.729467841653786 L 863.0716365197964 536.3093668464278" stroke-opacity="0.8" stroke-linejoin="round" stroke-miterlimit="10" stroke-width="2.5" stroke-dasharray="2.5,3"/><path fill="none" stroke="rgb(211,47,47)" paint-order="fill stroke markers" d=" M 1072.8851757706152 327.54751791159987 L 584.718990208385 536.3093668464278" stroke-opacity="0.8" stroke-linejoin="round" stroke-miterlimit="10" stroke-width="2.5" stroke-dasharray="2.5,3"/><path fill="none" stroke="rgb(46,125,50)" paint-order="fill stroke markers" d=" M 376.4609461924897 257.577608883136 L 863.0716365197964 536.3093668464278" stroke-opacity="0.8" stroke-linejoin="round" stroke-miterlimit="10" stroke-width="2.5" stroke-dasharray="2.5,3"/><path fill="none" stroke="rgb(46,125,50)" paint-order="fill stroke markers" d=" M 864.1206910370568 327.54751791159987 L 584.5757222739468 814.661976287878" stroke-opacity="0.8" stroke-linejoin="round" stroke-miterlimit="10" stroke-width="2.5" stroke-dasharray="2.5,3"/><path fill="rgb(21,101,192)" stroke="none" paint-order="stroke fill markers" d=" M 589.718990208385 536.3093668464278 C 589.718990208385 539.0707905955818 587.480413957539 541.3093668464278 584.718990208385 541.3093668464278 C 581.957566459231 541.3093668464278 579.718990208385 539.0707905955818 579.718990208385 536.3093668464278 C 579.718990208385 533.5479430972738 581.957566459231 531.3093668464278 584.718990208385 531.3093668464278 C 587.480413957539 531.3093668464278 589.718990208385 533.5479430972738 589.718990208385 536.3093668464278 Z" fill-opacity="1"/><path fill="none" stroke="rgb(0,0,0)" paint-order="fill stroke markers" d=" M 589.718990208385 536.3093668464278 C 589.718990208385 539.0707905955818 587.480413957539 541.3093668464278 584.718990208385 541.3093668464278 C 581.957566459231 541.3093668464278 579.718990208385 539.0707905955818 579.718990208385 536.3093668464278 C 579.718990208385 533.5479430972738 581.957566459231 531.3093668464278 584.718990208385 531.3093668464278 C 587.480413957539 531.3093668464278 589.718990208385 533.5479430972738 589.718990208385 536.3093668464278 Z" stroke-opacity="1" stroke-linecap="round" stroke-linejoin="round" stroke-miterlimit="10"/><text fill="rgb(21,101,192)" stroke="none" font-family="geogebra-sans-serif, sans-serif" font-size="16px" font-style="normal" font-weight="normal" text-decoration="normal" x="589" y="526" text-anchor="start" dominant-baseline="alphabetic" fill-opacity="1">O</text><text fill="none" stroke="rgb(255,255,255)" font-family="geogebra-sans-serif, sans-serif" font-size="16px" font-style="normal" font-weight="normal" text-decoration="normal" x="589" y="526" text-anchor="start" dominant-baseline="alphabetic" stroke-opacity="1" stroke-linejoin="bevel" stroke-miterlimit="10" stroke-width="3">O</text><text fill="rgb(21,101,192)" stroke="none" font-family="geogebra-sans-serif, sans-serif" font-size="16px" font-style="normal" font-weight="normal" text-decoration="normal" x="589" y="526" text-anchor="start" dominant-baseline="alphabetic" fill-opacity="1">O</text><path fill="rgb(21,101,192)" stroke="none" paint-order="stroke fill markers" d=" M 868.0716365197964 536.3093668464278 C 868.0716365197964 539.0707905955818 865.8330602689504 541.3093668464278 863.0716365197964 541.3093668464278 C 860.3102127706424 541.3093668464278 858.0716365197964 539.0707905955818 858.0716365197964 536.3093668464278 C 858.0716365197964 533.5479430972738 860.3102127706424 531.3093668464278 863.0716365197964 531.3093668464278 C 865.8330602689504 531.3093668464278 868.0716365197964 533.5479430972738 868.0716365197964 536.3093668464278 Z" fill-opacity="1"/><path fill="none" stroke="rgb(0,0,0)" paint-order="fill stroke markers" d=" M 868.0716365197964 536.3093668464278 C 868.0716365197964 539.0707905955818 865.8330602689504 541.3093668464278 863.0716365197964 541.3093668464278 C 860.3102127706424 541.3093668464278 858.0716365197964 539.0707905955818 858.0716365197964 536.3093668464278 C 858.0716365197964 533.5479430972738 860.3102127706424 531.3093668464278 863.0716365197964 531.3093668464278 C 865.8330602689504 531.3093668464278 868.0716365197964 533.5479430972738 868.0716365197964 536.3093668464278 Z" stroke-opacity="1" stroke-linecap="round" stroke-linejoin="round" stroke-miterlimit="10"/><text fill="rgb(21,101,192)" stroke="none" font-family="geogebra-sans-serif, sans-serif" font-size="16px" font-style="normal" font-weight="normal" text-decoration="normal" x="867" y="526" text-anchor="start" dominant-baseline="alphabetic" fill-opacity="1">H</text><text fill="none" stroke="rgb(255,255,255)" font-family="geogebra-sans-serif, sans-serif" font-size="16px" font-style="normal" font-weight="normal" text-decoration="normal" x="867" y="526" text-anchor="start" dominant-baseline="alphabetic" stroke-opacity="1" stroke-linejoin="bevel" stroke-miterlimit="10" stroke-width="3">H</text><text fill="rgb(21,101,192)" stroke="none" font-family="geogebra-sans-serif, sans-serif" font-size="16px" font-style="normal" font-weight="normal" text-decoration="normal" x="867" y="526" text-anchor="start" dominant-baseline="alphabetic" fill-opacity="1">H</text><path fill="rgb(21,101,192)" stroke="none" paint-order="stroke fill markers" d=" M 869.1206910370568 327.54751791159987 C 869.1206910370568 330.3089416607538 866.8821147862108 332.54751791159987 864.1206910370568 332.54751791159987 C 861.3592672879028 332.54751791159987 859.1206910370568 330.3089416607538 859.1206910370568 327.54751791159987 C 859.1206910370568 324.7860941624459 861.3592672879028 322.54751791159987 864.1206910370568 322.54751791159987 C 866.8821147862108 322.54751791159987 869.1206910370568 324.7860941624459 869.1206910370568 327.54751791159987 Z" fill-opacity="1"/><path fill="none" stroke="rgb(0,0,0)" paint-order="fill stroke markers" d=" M 869.1206910370568 327.54751791159987 C 869.1206910370568 330.3089416607538 866.8821147862108 332.54751791159987 864.1206910370568 332.54751791159987 C 861.3592672879028 332.54751791159987 859.1206910370568 330.3089416607538 859.1206910370568 327.54751791159987 C 859.1206910370568 324.7860941624459 861.3592672879028 322.54751791159987 864.1206910370568 322.54751791159987 C 866.8821147862108 322.54751791159987 869.1206910370568 324.7860941624459 869.1206910370568 327.54751791159987 Z" stroke-opacity="1" stroke-linecap="round" stroke-linejoin="round" stroke-miterlimit="10"/><text fill="rgb(21,101,192)" stroke="none" font-family="geogebra-sans-serif, sans-serif" font-size="16px" font-style="normal" font-weight="normal" text-decoration="normal" x="868" y="318" text-anchor="start" dominant-baseline="alphabetic" fill-opacity="1">A</text><text fill="none" stroke="rgb(255,255,255)" font-family="geogebra-sans-serif, sans-serif" font-size="16px" font-style="normal" font-weight="normal" text-decoration="normal" x="868" y="318" text-anchor="start" dominant-baseline="alphabetic" stroke-opacity="1" stroke-linejoin="bevel" stroke-miterlimit="10" stroke-width="3">A</text><text fill="rgb(21,101,192)" stroke="none" font-family="geogebra-sans-serif, sans-serif" font-size="16px" font-style="normal" font-weight="normal" text-decoration="normal" x="868" y="318" text-anchor="start" dominant-baseline="alphabetic" fill-opacity="1">A</text><path fill="rgb(21,101,192)" stroke="none" paint-order="stroke fill markers" d=" M 868.0716365197964 814.6620131578389 C 868.0716365197964 817.423436906993 865.8330602689504 819.6620131578389 863.0716365197964 819.6620131578389 C 860.3102127706424 819.6620131578389 858.0716365197964 817.423436906993 858.0716365197964 814.6620131578389 C 858.0716365197964 811.9005894086849 860.3102127706424 809.6620131578389 863.0716365197964 809.6620131578389 C 865.8330602689504 809.6620131578389 868.0716365197964 811.9005894086849 868.0716365197964 814.6620131578389 Z" fill-opacity="1"/><path fill="none" stroke="rgb(0,0,0)" paint-order="fill stroke markers" d=" M 868.0716365197964 814.6620131578389 C 868.0716365197964 817.423436906993 865.8330602689504 819.6620131578389 863.0716365197964 819.6620131578389 C 860.3102127706424 819.6620131578389 858.0716365197964 817.423436906993 858.0716365197964 814.6620131578389 C 858.0716365197964 811.9005894086849 860.3102127706424 809.6620131578389 863.0716365197964 809.6620131578389 C 865.8330602689504 809.6620131578389 868.0716365197964 811.9005894086849 868.0716365197964 814.6620131578389 Z" stroke-opacity="1" stroke-linecap="round" stroke-linejoin="round" stroke-miterlimit="10"/><path fill="rgb(21,101,192)" stroke="none" paint-order="stroke fill markers" d=" M 1077.8851757706152 327.54751791159987 C 1077.8851757706152 330.3089416607538 1075.646599519769 332.54751791159987 1072.8851757706152 332.54751791159987 C 1070.1237520214613 332.54751791159987 1067.8851757706152 330.3089416607538 1067.8851757706152 327.54751791159987 C 1067.8851757706152 324.7860941624459 1070.1237520214613 322.54751791159987 1072.8851757706152 322.54751791159987 C 1075.646599519769 322.54751791159987 1077.8851757706152 324.7860941624459 1077.8851757706152 327.54751791159987 Z" fill-opacity="1"/><path fill="none" stroke="rgb(0,0,0)" paint-order="fill stroke markers" d=" M 1077.8851757706152 327.54751791159987 C 1077.8851757706152 330.3089416607538 1075.646599519769 332.54751791159987 1072.8851757706152 332.54751791159987 C 1070.1237520214613 332.54751791159987 1067.8851757706152 330.3089416607538 1067.8851757706152 327.54751791159987 C 1067.8851757706152 324.7860941624459 1070.1237520214613 322.54751791159987 1072.8851757706152 322.54751791159987 C 1075.646599519769 322.54751791159987 1077.8851757706152 324.7860941624459 1077.8851757706152 327.54751791159987 Z" stroke-opacity="1" stroke-linecap="round" stroke-linejoin="round" stroke-miterlimit="10"/><text fill="rgb(21,101,192)" stroke="none" font-family="geogebra-sans-serif, sans-serif" font-size="16px" font-style="normal" font-weight="normal" text-decoration="normal" x="1077" y="318" text-anchor="start" dominant-baseline="alphabetic" fill-opacity="1">E</text><text fill="none" stroke="rgb(255,255,255)" font-family="geogebra-sans-serif, sans-serif" font-size="16px" font-style="normal" font-weight="normal" text-decoration="normal" x="1077" y="318" text-anchor="start" dominant-baseline="alphabetic" stroke-opacity="1" stroke-linejoin="bevel" stroke-miterlimit="10" stroke-width="3">E</text><text fill="rgb(21,101,192)" stroke="none" font-family="geogebra-sans-serif, sans-serif" font-size="16px" font-style="normal" font-weight="normal" text-decoration="normal" x="1077" y="318" text-anchor="start" dominant-baseline="alphabetic" fill-opacity="1">E</text><path fill="rgb(21,101,192)" stroke="none" paint-order="stroke fill markers" d=" M 1076.8361212533548 536.3093668464278 C 1076.8361212533548 539.0707905955818 1074.5975450025087 541.3093668464278 1071.8361212533548 541.3093668464278 C 1069.074697504201 541.3093668464278 1066.8361212533548 539.0707905955818 1066.8361212533548 536.3093668464278 C 1066.8361212533548 533.5479430972738 1069.074697504201 531.3093668464278 1071.8361212533548 531.3093668464278 C 1074.5975450025087 531.3093668464278 1076.8361212533548 533.5479430972738 1076.8361212533548 536.3093668464278 Z" fill-opacity="1"/><path fill="none" stroke="rgb(0,0,0)" paint-order="fill stroke markers" d=" M 1076.8361212533548 536.3093668464278 C 1076.8361212533548 539.0707905955818 1074.5975450025087 541.3093668464278 1071.8361212533548 541.3093668464278 C 1069.074697504201 541.3093668464278 1066.8361212533548 539.0707905955818 1066.8361212533548 536.3093668464278 C 1066.8361212533548 533.5479430972738 1069.074697504201 531.3093668464278 1071.8361212533548 531.3093668464278 C 1074.5975450025087 531.3093668464278 1076.8361212533548 533.5479430972738 1076.8361212533548 536.3093668464278 Z" stroke-opacity="1" stroke-linecap="round" stroke-linejoin="round" stroke-miterlimit="10"/><path fill="rgb(21,101,192)" stroke="none" paint-order="stroke fill markers" d=" M 589.5757222739468 814.661976287878 C 589.5757222739468 817.423400037032 587.3371460231008 819.661976287878 584.5757222739468 819.661976287878 C 581.8142985247928 819.661976287878 579.5757222739468 817.423400037032 579.5757222739468 814.661976287878 C 579.5757222739468 811.900552538724 581.8142985247928 809.661976287878 584.5757222739468 809.661976287878 C 587.3371460231008 809.661976287878 589.5757222739468 811.900552538724 589.5757222739468 814.661976287878 Z" fill-opacity="1"/><path fill="none" stroke="rgb(0,0,0)" paint-order="fill stroke markers" d=" M 589.5757222739468 814.661976287878 C 589.5757222739468 817.423400037032 587.3371460231008 819.661976287878 584.5757222739468 819.661976287878 C 581.8142985247928 819.661976287878 579.5757222739468 817.423400037032 579.5757222739468 814.661976287878 C 579.5757222739468 811.900552538724 581.8142985247928 809.661976287878 584.5757222739468 809.661976287878 C 587.3371460231008 809.661976287878 589.5757222739468 811.900552538724 589.5757222739468 814.661976287878 Z" stroke-opacity="1" stroke-linecap="round" stroke-linejoin="round" stroke-miterlimit="10"/><text fill="rgb(21,101,192)" stroke="none" font-family="geogebra-sans-serif, sans-serif" font-size="16px" font-style="normal" font-weight="normal" text-decoration="normal" x="589" y="805" text-anchor="start" dominant-baseline="alphabetic" fill-opacity="1">D</text><text fill="none" stroke="rgb(255,255,255)" font-family="geogebra-sans-serif, sans-serif" font-size="16px" font-style="normal" font-weight="normal" text-decoration="normal" x="589" y="805" text-anchor="start" dominant-baseline="alphabetic" stroke-opacity="1" stroke-linejoin="bevel" stroke-miterlimit="10" stroke-width="3">D</text><text fill="rgb(21,101,192)" stroke="none" font-family="geogebra-sans-serif, sans-serif" font-size="16px" font-style="normal" font-weight="normal" text-decoration="normal" x="589" y="805" text-anchor="start" dominant-baseline="alphabetic" fill-opacity="1">D</text><path fill="rgb(21,101,192)" stroke="none" paint-order="stroke fill markers" d=" M 660.9781899714964 48.729467841653786 C 660.9781899714964 51.49089159080775 658.7396137206504 53.729467841653786 655.9781899714964 53.729467841653786 C 653.2167662223424 53.729467841653786 650.9781899714964 51.49089159080775 650.9781899714964 48.729467841653786 C 650.9781899714964 45.96804409249982 653.2167662223424 43.729467841653786 655.9781899714964 43.729467841653786 C 658.7396137206504 43.729467841653786 660.9781899714964 45.96804409249982 660.9781899714964 48.729467841653786 Z" fill-opacity="1"/><path fill="none" stroke="rgb(0,0,0)" paint-order="fill stroke markers" d=" M 660.9781899714964 48.729467841653786 C 660.9781899714964 51.49089159080775 658.7396137206504 53.729467841653786 655.9781899714964 53.729467841653786 C 653.2167662223424 53.729467841653786 650.9781899714964 51.49089159080775 650.9781899714964 48.729467841653786 C 650.9781899714964 45.96804409249982 653.2167662223424 43.729467841653786 655.9781899714964 43.729467841653786 C 658.7396137206504 43.729467841653786 660.9781899714964 45.96804409249982 660.9781899714964 48.729467841653786 Z" stroke-opacity="1" stroke-linecap="round" stroke-linejoin="round" stroke-miterlimit="10"/><text fill="rgb(21,101,192)" stroke="none" font-family="geogebra-sans-serif, sans-serif" font-size="16px" font-style="normal" font-weight="normal" text-decoration="normal" x="660" y="39" text-anchor="start" dominant-baseline="alphabetic" fill-opacity="1">B</text><text fill="none" stroke="rgb(255,255,255)" font-family="geogebra-sans-serif, sans-serif" font-size="16px" font-style="normal" font-weight="normal" text-decoration="normal" x="660" y="39" text-anchor="start" dominant-baseline="alphabetic" stroke-opacity="1" stroke-linejoin="bevel" stroke-miterlimit="10" stroke-width="3">B</text><text fill="rgb(21,101,192)" stroke="none" font-family="geogebra-sans-serif, sans-serif" font-size="16px" font-style="normal" font-weight="normal" text-decoration="normal" x="660" y="39" text-anchor="start" dominant-baseline="alphabetic" fill-opacity="1">B</text><path fill="rgb(21,101,192)" stroke="none" paint-order="stroke fill markers" d=" M 381.4609461924897 257.577608883136 C 381.4609461924897 260.33903263228996 379.22236994164365 262.577608883136 376.4609461924897 262.577608883136 C 373.69952244333575 262.577608883136 371.4609461924897 260.33903263228996 371.4609461924897 257.577608883136 C 371.4609461924897 254.81618513398203 373.69952244333575 252.577608883136 376.4609461924897 252.577608883136 C 379.22236994164365 252.577608883136 381.4609461924897 254.81618513398203 381.4609461924897 257.577608883136 Z" fill-opacity="1"/><path fill="none" stroke="rgb(0,0,0)" paint-order="fill stroke markers" d=" M 381.4609461924897 257.577608883136 C 381.4609461924897 260.33903263228996 379.22236994164365 262.577608883136 376.4609461924897 262.577608883136 C 373.69952244333575 262.577608883136 371.4609461924897 260.33903263228996 371.4609461924897 257.577608883136 C 371.4609461924897 254.81618513398203 373.69952244333575 252.577608883136 376.4609461924897 252.577608883136 C 379.22236994164365 252.577608883136 381.4609461924897 254.81618513398203 381.4609461924897 257.577608883136 Z" stroke-opacity="1" stroke-linecap="round" stroke-linejoin="round" stroke-miterlimit="10"/><text fill="rgb(21,101,192)" stroke="none" font-family="geogebra-sans-serif, sans-serif" font-size="16px" font-style="normal" font-weight="normal" text-decoration="normal" x="380" y="248" text-anchor="start" dominant-baseline="alphabetic" fill-opacity="1">C</text><text fill="none" stroke="rgb(255,255,255)" font-family="geogebra-sans-serif, sans-serif" font-size="16px" font-style="normal" font-weight="normal" text-decoration="normal" x="380" y="248" text-anchor="start" dominant-baseline="alphabetic" stroke-opacity="1" stroke-linejoin="bevel" stroke-miterlimit="10" stroke-width="3">C</text><text fill="rgb(21,101,192)" stroke="none" font-family="geogebra-sans-serif, sans-serif" font-size="16px" font-style="normal" font-weight="normal" text-decoration="normal" x="380" y="248" text-anchor="start" dominant-baseline="alphabetic" fill-opacity="1">C</text><path fill="rgb(21,101,192)" stroke="none" paint-order="stroke fill markers" d=" M 560.0122465146255 124.16864044646968 C 560.0122465146255 126.93006419562364 557.7736702637795 129.16864044646968 555.0122465146255 129.16864044646968 C 552.2508227654715 129.16864044646968 550.0122465146255 126.93006419562364 550.0122465146255 124.16864044646968 C 550.0122465146255 121.40721669731572 552.2508227654715 119.16864044646968 555.0122465146255 119.16864044646968 C 557.7736702637795 119.16864044646968 560.0122465146255 121.40721669731572 560.0122465146255 124.16864044646968 Z" fill-opacity="1"/><path fill="none" stroke="rgb(0,0,0)" paint-order="fill stroke markers" d=" M 560.0122465146255 124.16864044646968 C 560.0122465146255 126.93006419562364 557.7736702637795 129.16864044646968 555.0122465146255 129.16864044646968 C 552.2508227654715 129.16864044646968 550.0122465146255 126.93006419562364 550.0122465146255 124.16864044646968 C 550.0122465146255 121.40721669731572 552.2508227654715 119.16864044646968 555.0122465146255 119.16864044646968 C 557.7736702637795 119.16864044646968 560.0122465146255 121.40721669731572 560.0122465146255 124.16864044646968 Z" stroke-opacity="1" stroke-linecap="round" stroke-linejoin="round" stroke-miterlimit="10"/><text fill="rgb(21,101,192)" stroke="none" font-family="geogebra-sans-serif, sans-serif" font-size="16px" font-style="normal" font-weight="normal" text-decoration="normal" x="559" y="114" text-anchor="start" dominant-baseline="alphabetic" fill-opacity="1">G</text><text fill="none" stroke="rgb(255,255,255)" font-family="geogebra-sans-serif, sans-serif" font-size="16px" font-style="normal" font-weight="normal" text-decoration="normal" x="559" y="114" text-anchor="start" dominant-baseline="alphabetic" stroke-opacity="1" stroke-linejoin="bevel" stroke-miterlimit="10" stroke-width="3">G</text><text fill="rgb(21,101,192)" stroke="none" font-family="geogebra-sans-serif, sans-serif" font-size="16px" font-style="normal" font-weight="normal" text-decoration="normal" x="559" y="114" text-anchor="start" dominant-baseline="alphabetic" fill-opacity="1">G</text><path fill="rgb(97,97,97)" stroke="none" paint-order="stroke fill markers" d=" M 767.3237007657534 402.8604669512565 C 767.3237007657534 405.06960595057967 765.5328397650766 406.8604669512565 763.3237007657534 406.8604669512565 C 761.1145617664303 406.8604669512565 759.3237007657534 405.06960595057967 759.3237007657534 402.8604669512565 C 759.3237007657534 400.65132795193335 761.1145617664303 398.8604669512565 763.3237007657534 398.8604669512565 C 765.5328397650766 398.8604669512565 767.3237007657534 400.65132795193335 767.3237007657534 402.8604669512565 Z" fill-opacity="1"/><path fill="none" stroke="rgb(0,0,0)" paint-order="fill stroke markers" d=" M 767.3237007657534 402.8604669512565 C 767.3237007657534 405.06960595057967 765.5328397650766 406.8604669512565 763.3237007657534 406.8604669512565 C 761.1145617664303 406.8604669512565 759.3237007657534 405.06960595057967 759.3237007657534 402.8604669512565 C 759.3237007657534 400.65132795193335 761.1145617664303 398.8604669512565 763.3237007657534 398.8604669512565 C 765.5328397650766 398.8604669512565 767.3237007657534 400.65132795193335 767.3237007657534 402.8604669512565 Z" stroke-opacity="1" stroke-linecap="round" stroke-linejoin="round" stroke-miterlimit="10"/><text fill="rgb(97,97,97)" stroke="none" font-family="geogebra-sans-serif, sans-serif" font-size="16px" font-style="normal" font-weight="normal" text-decoration="normal" x="767" y="395" text-anchor="start" dominant-baseline="alphabetic" fill-opacity="1">F</text><text fill="none" stroke="rgb(255,255,255)" font-family="geogebra-sans-serif, sans-serif" font-size="16px" font-style="normal" font-weight="normal" text-decoration="normal" x="767" y="395" text-anchor="start" dominant-baseline="alphabetic" stroke-opacity="1" stroke-linejoin="bevel" stroke-miterlimit="10" stroke-width="3">F</text><text fill="rgb(97,97,97)" stroke="none" font-family="geogebra-sans-serif, sans-serif" font-size="16px" font-style="normal" font-weight="normal" text-decoration="normal" x="767" y="395" text-anchor="start" dominant-baseline="alphabetic" fill-opacity="1">F</text></g></g></svg>